<?xml version="1.0" encoding="UTF-8"?>
<svg xmlns="http://www.w3.org/2000/svg" xmlns:xlink="http://www.w3.org/1999/xlink" width="3001" height="3001" viewBox="0 0 3001 3001">
<path fill-rule="evenodd" fill="transparent" fill-opacity="1" d="M 1 0 L 3001 0 L 3001 3000 L 1 3000 L 1 0 "/>
<path fill-rule="evenodd" fill="rgb(37 99 235)" fill-opacity="1" d="M 1497.609375 2091.628906 C 1493.078125 2091.628906 1486.289062 2089.367188 1481.769531 2084.835938 C 1370.910156 1978.511719 1208.011719 1917.421875 1033.808594 1917.421875 C 941.046875 1917.421875 857.339844 1931 780.417969 1960.410156 C 773.628906 1962.671875 764.578125 1962.671875 760.046875 1958.140625 C 753.265625 1953.621094 751 1946.828125 751 1940.050781 L 751 1091.628906 C 751 1082.578125 755.527344 1073.53125 764.578125 1071.269531 C 789.464844 1059.949219 814.351562 1053.171875 836.976562 1048.640625 C 841.503906 1048.640625 846.023438 1046.378906 850.550781 1046.378906 L 850.550781 969.460938 C 850.550781 960.410156 857.339844 951.359375 866.386719 949.101562 C 943.3125 921.949219 1020.230469 908.371094 1101.679688 908.371094 C 1248.738281 908.371094 1393.53125 960.410156 1499.871094 1048.640625 C 1601.679688 960.410156 1748.738281 908.371094 1900.320312 908.371094 C 1979.5 908.371094 2060.949219 921.949219 2135.609375 949.101562 C 2144.660156 951.359375 2151.460938 960.410156 2151.460938 969.460938 L 2151.460938 1046.378906 C 2155.980469 1048.640625 2160.5 1048.640625 2165.03125 1048.640625 C 2187.648438 1055.429688 2210.28125 1059.949219 2237.421875 1071.269531 C 2246.46875 1075.789062 2251 1082.578125 2251 1091.628906 L 2251 1940.050781 C 2251 1946.828125 2246.480469 1953.621094 2241.949219 1958.140625 C 2235.171875 1962.660156 2228.378906 1962.660156 2221.589844 1960.410156 C 2144.671875 1931 2060.960938 1917.421875 1968.199219 1917.421875 C 1713.75 1917.421875 1520.660156 2091.628906 1497.609375 2091.628906 Z M 1033.800781 1872.171875 C 1212.53125 1872.171875 1382.738281 1928.539062 1500.390625 2034.871094 C 1620.300781 1928.539062 1780.410156 1872.171875 1961.410156 1872.171875 C 2047.378906 1872.171875 2126.558594 1883.480469 2201.230469 1908.371094 L 2201.230469 1107.46875 C 2183.121094 1100.679688 2167.289062 1096.160156 2149.191406 1091.628906 L 2146.929688 1091.628906 L 2146.929688 1822.398438 C 2146.929688 1829.191406 2142.398438 1835.96875 2137.878906 1840.5 C 2131.089844 1845.019531 2124.300781 1845.019531 2117.519531 1842.761719 C 2047.378906 1817.871094 1972.71875 1804.300781 1898.058594 1804.300781 C 1672.488281 1804.300781 1517.378906 1953.621094 1499.871094 1953.621094 L 1495.339844 1953.621094 C 1478.640625 1953.621094 1318.46875 1804.300781 1097.148438 1804.300781 C 1022.488281 1804.300781 950.09375 1817.878906 877.699219 1842.761719 C 870.90625 1845.03125 864.121094 1845.03125 857.339844 1840.5 C 850.546875 1835.96875 848.289062 1829.191406 848.289062 1822.398438 L 848.289062 1091.628906 L 846.023438 1091.628906 C 827.921875 1096.160156 812.085938 1100.679688 793.988281 1107.46875 L 793.988281 1908.371094 C 868.648438 1883.480469 947.835938 1872.171875 1033.800781 1872.171875 Z M 1097.148438 1759.050781 C 1239.691406 1759.050781 1373.171875 1802.03125 1474.980469 1881.21875 L 1474.980469 1087.109375 C 1375.429688 1001.128906 1237.429688 951.359375 1097.148438 951.359375 C 1027.019531 951.359375 959.148438 962.671875 893.539062 985.300781 L 893.539062 1790.71875 C 961.410156 1770.359375 1027.019531 1759.050781 1097.148438 1759.050781 Z M 1520.230469 1087.109375 L 1520.230469 1881.21875 C 1619.78125 1802.03125 1753.261719 1759.050781 1898.058594 1759.050781 C 1965.929688 1759.050781 2036.058594 1770.359375 2101.671875 1790.730469 L 2101.671875 985.300781 C 2036.058594 962.671875 1965.929688 951.359375 1898.058594 951.359375 C 1753.261719 951.359375 1615.25 1001.128906 1520.230469 1087.109375 "/>
</svg>
